<?xml version="1.0" encoding="utf-8" ?><svg xmlns="http://www.w3.org/2000/svg" xmlns:xlink="http://www.w3.org/1999/xlink" width="1024" height="1024" viewBox="0 0 1024 1024"><path fill="white" d="M0 0L1024 0L1024 1024L0 1024L0 0Z"/><path fill="#FE3200" d="M502.88 129.209C718.716 124.203 897.765 295.074 902.847 510.909C907.929 726.744 737.12 905.853 521.287 911.01C305.347 916.171 126.13 745.259 121.046 529.317C115.961 313.375 286.936 134.218 502.88 129.209Z"/><path fill="white" d="M567.53 189.726C587.996 189.207 614.239 190.155 633.137 197.297C654.566 206.279 645.856 219.087 637.876 233.457C628.802 249.799 634.821 274.187 638.241 291.437C646.241 331.782 659.426 369.267 663.349 410.462C664.396 422.229 664.941 434.035 664.983 445.848C665.027 454.148 662.864 483.82 665.176 489.911C665.969 492.001 667.076 493.197 669.167 494.002C671.262 494.809 673.483 494.908 675.677 494.492C686.76 492.387 707.568 478.801 716.917 471.953C724.913 466.097 733.052 457.856 742.146 453.96C747.073 451.849 752.308 452.122 757.18 454.256C762.475 456.596 766.605 460.968 768.642 466.387C774.441 481.621 764.68 511.131 757.998 525.806C750.353 525.062 746.105 521.683 739.367 520.992C739.392 514.545 737 508.747 731.004 505.693C727.108 503.728 722.572 503.46 718.472 504.953C712.751 507.025 710.597 510.555 708.186 515.565C702.976 514.566 700.222 515.69 694.944 515.376C686.136 514.852 669.472 507.972 661.804 513.041C658.326 515.341 657.4 519.563 656.753 523.347C651.539 553.793 646.512 584.307 641.39 614.768L636.397 643.76C632.344 667.274 631.429 668.833 656.649 672.623C661.134 673.297 665.895 674.176 670.454 674.768C670.366 710.015 674.316 733.102 694.432 763.02L649.719 797.275C612.908 825.424 594.454 839.564 547.618 849.067C534.116 851.192 521.616 852.573 507.922 852.544C465.387 852.333 424.681 835.218 394.777 804.97C381.969 792.126 371.36 777.263 363.375 760.977C344.927 723.695 344.757 698.143 345.164 657.696L345.459 608.718C326.976 599.55 312.256 590.639 296.83 575.888C269.765 549.831 249.919 514.38 247.654 476.372C246.826 461.958 259.322 448.895 274.099 452.821C280.068 454.603 285.04 458.979 289.928 462.615C302.883 472.57 315.772 482.638 330.046 490.349C349.642 500.936 352.599 494.558 352.602 474.835C352.603 469.943 353.17 462.499 353.55 457.389C354.385 445.914 355.517 434.462 356.945 423.046C365.07 359.274 384.627 295.69 429.562 247.907C454.507 221.382 487.77 201.807 523.525 194.046C537.752 190.957 553.043 190.209 567.53 189.726Z"/><path fill="#FE3200" d="M436.589 345.692C448.774 344.272 464.445 348.104 474.692 354.647C490.462 364.716 498.895 378.152 503.257 395.918C509.973 395.055 515.434 394.657 522.05 396.448C531.592 367.968 554.003 349.594 584.749 350.276C601.12 350.732 616.626 357.729 627.798 369.703C639.711 382.301 645.179 398.056 644.663 415.264C644.216 431.573 637.245 447.02 625.31 458.144C613.194 469.641 596.982 475.815 580.286 475.29C547.147 473.389 522.836 449.024 520.266 416.055C513.311 413.702 511.144 413.838 503.999 415.435C498.866 444.202 479.83 466.4 449.882 470.131C433.279 472.287 416.511 467.612 403.418 457.178C390.577 446.955 382.28 432.085 380.323 415.789C378.325 398.935 383.133 381.98 393.68 368.683C404.592 355.086 419.379 347.517 436.589 345.692Z"/><path fill="white" d="M578.711 369.781C602.431 367.701 623.347 385.243 625.429 408.963C627.51 432.683 609.97 453.6 586.25 455.683C562.528 457.766 541.608 440.224 539.527 416.502C537.445 392.779 554.989 371.861 578.711 369.781Z"/><path fill="#FE3200" d="M567.621 393.096C585.647 390.963 590.103 421.844 572.96 429.98C555.333 431.855 550.595 401.57 567.621 393.096Z"/><path fill="white" d="M436.592 365.381C460.284 362.312 481.953 379.097 484.905 402.803C487.858 426.51 470.967 448.096 447.246 450.932C423.69 453.749 402.285 437 399.353 413.458C396.421 389.915 413.064 368.429 436.592 365.381Z"/><path fill="#FE3200" d="M450.151 392.556C469.497 391.173 471.793 422.418 455.411 429.513C437.094 430.761 433.512 400.739 450.151 392.556Z"/><path fill="#FE3200" d="M494.097 483.572C503.9 482.876 503.228 489.726 512.366 490.454C518.947 491.065 521.696 483.875 528.163 483.814C533.661 483.762 538.219 488.355 537.942 493.89C537.722 498.296 535.004 500.573 531.912 503.223C523.741 508.567 515.047 510.875 505.134 508.727C497.669 507.109 484.805 500.336 487.196 490.794C488.052 487.38 491.078 485.14 494.097 483.572Z"/><path fill="white" d="M456.507 200.21L456.682 200.281C456.094 201.042 456.242 201.02 455.546 201.435C446.62 206.748 437.552 213.761 429.8 220.683C358.859 284.026 338.298 379.08 333.403 470.249C323.734 464.018 314.3 457.044 305.215 450.006C290.22 438.39 277.848 428.496 258 434.397C247.53 437.421 238.717 444.53 233.545 454.122C229.57 461.484 227.978 470.128 228.489 478.451C231.626 529.556 262.219 576.489 302.818 606.371C309.96 611.628 318.176 616.077 325.983 620.265C325.765 632.883 325.807 645.632 325.718 658.262C325.613 673.276 325.377 689.14 326.808 704.081C330.333 739.626 343.821 773.454 365.719 801.673C370.012 807.238 373.233 810.304 377.635 815.33L377.431 815.741L375.76 815.007C357.588 806.374 344.227 799.092 327.356 787.713C256.297 739.83 207.226 665.624 190.984 581.491C174.736 497.289 192.639 410.082 240.748 339.092C291.857 263.69 367.655 217.184 456.507 200.21Z"/><path fill="white" d="M660.487 232.188C668.769 234.915 684.832 245.117 692.245 249.954C740.829 281.712 780.026 325.897 805.765 377.921C843.313 454.662 849.039 543.125 821.697 624.066C801.31 684.061 763.637 736.687 713.417 775.325C706.025 781.077 689.119 793.43 680.955 797.456C690.281 789.643 714.018 774.948 717.044 764.29C717.037 759.221 713.016 754.794 709.944 750.885C693.344 729.771 690.246 704.139 689.782 678.258C710.437 680.306 732.117 686.35 752.899 688.585C757.104 689.038 761.961 686.993 763.05 682.659C766.768 667.858 767.953 652.444 771.189 637.491C808.323 635.65 821.373 586.805 796.69 562.221C793.831 559.373 790.42 557.271 787.007 555.136C788.967 542.675 794.207 533.141 778.295 528.886C786.073 507.782 795.873 476.442 784.961 455.278C779.857 445.495 771.07 438.145 760.539 434.85C739.494 428.363 726.086 440.127 710.603 452.077C702.254 458.52 693.413 464.658 684.048 469.522C686.062 429.71 682.196 389.819 672.576 351.135C664.964 320.188 655.139 286.499 652.502 254.542C651.896 247.202 656.998 238.526 660.487 232.188Z"/><path fill="white" d="M672.527 528.294C677.613 529.027 683.817 530.336 688.958 531.295C689.845 534.166 691.338 538.059 694.788 538.695C712.09 541.885 729.529 544.713 746.896 547.554C749.622 548 752.592 544.355 754.228 542.633C756.695 541.72 768.066 544.352 771.987 544.824C771.312 548.604 770.759 552.404 770.331 556.22C761.737 558.547 755.65 562.162 749.904 569.12C742.034 578.779 738.378 591.197 739.759 603.58C741.05 615.843 745.96 624.342 755.418 631.91C754.303 637.664 753.355 643.956 752.362 649.772L748.588 671.101C742.087 669.511 734.44 668.363 727.785 667.299C702.236 663.213 676.71 658.317 651.165 654.286C653.66 642.46 655.74 628.005 657.798 615.925L672.527 528.294Z"/><path fill="#FE3200" d="M728.531 575.459C730.937 575.557 735.625 576.741 736.81 578.759C741.317 586.432 728.608 594.551 724.217 598.346C717.618 604.048 711.71 608.914 705.245 614.207C695.617 622.091 692.808 615.963 687.24 608.229C683.587 603.454 674.541 595.171 681.151 589.462C682.894 587.973 685.176 587.273 687.454 587.528C692.27 588.091 696.64 594.996 699.738 598.866C704.537 594.713 724.061 577.774 728.531 575.459Z"/><path fill="white" d="M775.945 572.598C785.073 572.333 790.002 579.269 791.629 587.512C793.142 595.595 791.392 603.948 786.761 610.744C782.985 616.207 779.14 618.784 772.728 619.964C751.076 619.207 750.425 579.212 775.945 572.598Z"/></svg>